<mxfile host="app.diagrams.net" modified="2024-04-11T14:24:05.352Z" agent="Mozilla/5.0 (Windows NT 10.0; Win64; x64) AppleWebKit/537.36 (KHTML, like Gecko) Chrome/123.0.0.0 Safari/537.36" etag="uYlYKyMVFhRf2zPNqqr8" version="24.2.3" type="device">
  <diagram name="Pagina-1" id="PNE2myZaPq-YDNeh5gzV">
    <mxGraphModel dx="1033" dy="373" grid="1" gridSize="10" guides="1" tooltips="1" connect="1" arrows="1" fold="1" page="1" pageScale="1" pageWidth="1500" pageHeight="500" math="0" shadow="0">
      <root>
        <mxCell id="0" />
        <mxCell id="1" parent="0" />
        <mxCell id="eshKHlF4IlTojMyeIxbB-1" value="&quot;&lt;i style=&quot;font-size: 12px;&quot;&gt;Tut Tut Child&lt;/i&gt;&quot;" style="text;html=1;align=center;verticalAlign=middle;whiteSpace=wrap;rounded=0;fontSize=12;" parent="1" vertex="1">
          <mxGeometry x="703.75" y="160" width="120" height="30" as="geometry" />
        </mxCell>
        <mxCell id="eshKHlF4IlTojMyeIxbB-2" value="Tokenization" style="rounded=1;whiteSpace=wrap;html=1;fillColor=#f5f5f5;fontColor=#333333;strokeColor=default;strokeWidth=2;rotation=90;" parent="1" vertex="1">
          <mxGeometry x="770" y="160" width="132.5" height="30" as="geometry" />
        </mxCell>
        <mxCell id="eshKHlF4IlTojMyeIxbB-3" value="Tut" style="rounded=1;whiteSpace=wrap;html=1;fillColor=#f8cecc;strokeColor=default;strokeWidth=2;" parent="1" vertex="1">
          <mxGeometry x="862.5" y="140" width="40" height="20" as="geometry" />
        </mxCell>
        <mxCell id="eshKHlF4IlTojMyeIxbB-4" value="Tut" style="rounded=1;whiteSpace=wrap;html=1;fillColor=#f8cecc;strokeColor=default;strokeWidth=2;" parent="1" vertex="1">
          <mxGeometry x="862.5" y="165" width="40" height="20" as="geometry" />
        </mxCell>
        <mxCell id="eshKHlF4IlTojMyeIxbB-5" value="Child" style="rounded=1;whiteSpace=wrap;html=1;fillColor=#f8cecc;strokeColor=default;strokeWidth=2;" parent="1" vertex="1">
          <mxGeometry x="862.5" y="190" width="40" height="20" as="geometry" />
        </mxCell>
        <mxCell id="eshKHlF4IlTojMyeIxbB-6" value="+" style="text;html=1;align=center;verticalAlign=middle;whiteSpace=wrap;rounded=0;" parent="1" vertex="1">
          <mxGeometry x="890" y="135" width="60" height="30" as="geometry" />
        </mxCell>
        <mxCell id="eshKHlF4IlTojMyeIxbB-7" value="+" style="text;html=1;align=center;verticalAlign=middle;whiteSpace=wrap;rounded=0;" parent="1" vertex="1">
          <mxGeometry x="890" y="160" width="60" height="30" as="geometry" />
        </mxCell>
        <mxCell id="eshKHlF4IlTojMyeIxbB-8" value="+" style="text;html=1;align=center;verticalAlign=middle;whiteSpace=wrap;rounded=0;" parent="1" vertex="1">
          <mxGeometry x="890" y="185" width="60" height="30" as="geometry" />
        </mxCell>
        <mxCell id="eshKHlF4IlTojMyeIxbB-9" value="1" style="rounded=1;whiteSpace=wrap;html=1;fillColor=#d5e8d4;strokeColor=default;strokeWidth=2;" parent="1" vertex="1">
          <mxGeometry x="938" y="140" width="40" height="20" as="geometry" />
        </mxCell>
        <mxCell id="eshKHlF4IlTojMyeIxbB-10" value="2" style="rounded=1;whiteSpace=wrap;html=1;fillColor=#d5e8d4;strokeColor=default;strokeWidth=2;" parent="1" vertex="1">
          <mxGeometry x="938" y="165" width="40" height="20" as="geometry" />
        </mxCell>
        <mxCell id="eshKHlF4IlTojMyeIxbB-11" value="3" style="rounded=1;whiteSpace=wrap;html=1;fillColor=#d5e8d4;strokeColor=default;strokeWidth=2;" parent="1" vertex="1">
          <mxGeometry x="938" y="190" width="40" height="20" as="geometry" />
        </mxCell>
        <mxCell id="eshKHlF4IlTojMyeIxbB-12" value="=" style="text;html=1;align=center;verticalAlign=middle;whiteSpace=wrap;rounded=0;" parent="1" vertex="1">
          <mxGeometry x="970" y="135" width="60" height="30" as="geometry" />
        </mxCell>
        <mxCell id="eshKHlF4IlTojMyeIxbB-13" value="=" style="text;html=1;align=center;verticalAlign=middle;whiteSpace=wrap;rounded=0;" parent="1" vertex="1">
          <mxGeometry x="970" y="160" width="60" height="30" as="geometry" />
        </mxCell>
        <mxCell id="eshKHlF4IlTojMyeIxbB-14" value="=" style="text;html=1;align=center;verticalAlign=middle;whiteSpace=wrap;rounded=0;" parent="1" vertex="1">
          <mxGeometry x="970" y="185" width="60" height="30" as="geometry" />
        </mxCell>
        <mxCell id="eshKHlF4IlTojMyeIxbB-15" value="Child/3" style="rounded=1;whiteSpace=wrap;html=1;fillColor=#dae8fc;strokeColor=default;strokeWidth=2;" parent="1" vertex="1">
          <mxGeometry x="1020" y="190" width="50" height="20" as="geometry" />
        </mxCell>
        <mxCell id="eshKHlF4IlTojMyeIxbB-17" value="Tut/2" style="rounded=1;whiteSpace=wrap;html=1;fillColor=#dae8fc;strokeColor=default;strokeWidth=2;" parent="1" vertex="1">
          <mxGeometry x="1020" y="165" width="50" height="20" as="geometry" />
        </mxCell>
        <mxCell id="eshKHlF4IlTojMyeIxbB-18" value="Tut/1" style="rounded=1;whiteSpace=wrap;html=1;fillColor=#dae8fc;strokeColor=default;strokeWidth=2;" parent="1" vertex="1">
          <mxGeometry x="1020" y="140" width="50" height="20" as="geometry" />
        </mxCell>
      </root>
    </mxGraphModel>
  </diagram>
</mxfile>
